<?xml version="1.0" standalone="no"?>
<!DOCTYPE svg PUBLIC "-//W3C//DTD SVG 20010904//EN"
 "http://www.w3.org/TR/2001/REC-SVG-20010904/DTD/svg10.dtd">
<svg version="1.0" xmlns="http://www.w3.org/2000/svg"
 width="645.000000pt" height="645.000000pt" viewBox="0 0 645.000000 645.000000"
 preserveAspectRatio="xMidYMid meet">
<metadata>
Created by potrace 1.11, written by Peter Selinger 2001-2013
</metadata>
<g transform="translate(0.000000,645.000000) scale(0.100000,-0.100000)"
fill="#000000" stroke="none">
<path d="M3050 6269 c-627 -28 -1234 -258 -1740 -659 -135 -106 -373 -345
-480 -480 -368 -464 -595 -1027 -651 -1615 -17 -178 -6 -576 20 -740 88 -542
303 -1028 642 -1450 435 -542 1070 -931 1741 -1069 899 -184 1804 30 2521 596
132 104 381 354 486 487 321 406 533 877 620 1382 65 373 52 809 -34 1192
-217 967 -920 1784 -1850 2150 -405 160 -816 226 -1275 206z m60 -471 c49
-340 242 -583 515 -653 33 -8 90 -18 128 -22 88 -8 91 -28 5 -38 -89 -10 -145
-22 -208 -47 -238 -94 -395 -318 -440 -630 -9 -58 -18 -88 -26 -88 -15 0 -20
16 -29 95 -4 33 -18 97 -31 143 -91 314 -302 496 -611 527 -98 10 -98 30 -1
39 291 27 503 197 597 481 16 50 35 122 41 160 17 107 19 115 34 115 10 0 17
-25 26 -82z m844 -1225 c38 -186 130 -277 309 -308 49 -8 48 -25 -3 -25 -54 0
-132 -31 -184 -73 -54 -45 -103 -136 -122 -229 -21 -102 -22 -102 -44 7 -33
163 -146 278 -287 292 -65 7 -77 20 -26 28 174 27 278 126 313 300 22 109 23
109 44 8z m-1346 -631 c7 -32 26 -79 42 -104 35 -53 111 -98 164 -98 49 0 46
-16 -5 -24 -50 -8 -107 -36 -136 -68 -29 -30 -60 -103 -69 -157 -8 -52 -17
-44 -33 31 -24 110 -120 198 -218 198 -41 0 -16 17 32 22 25 3 63 17 85 32 49
32 98 114 106 179 4 26 10 47 13 47 4 0 12 -26 19 -58z m1092 -611 c626 -60
1237 -183 1770 -356 194 -63 394 -142 422 -166 l23 -20 -40 6 c-22 3 -152 33
-289 66 -781 188 -1375 272 -2124 301 -338 13 -794 2 -1097 -26 -82 -8 -152
-13 -156 -10 -20 12 -101 145 -93 153 11 10 214 36 399 51 72 5 148 12 170 14
83 8 905 -3 1015 -13z m-1720 -153 l51 -73 -33 -7 c-18 -4 -112 -19 -208 -33
-333 -50 -669 -125 -1074 -239 -105 -30 -209 -58 -231 -62 -37 -7 -39 -6 -26
10 56 67 578 267 956 366 189 50 449 108 487 109 22 1 35 -11 78 -71z m396
-520 c32 -40 63 -80 70 -88 12 -14 3 -16 -74 -16 -188 0 -296 -77 -339 -241
-38 -144 26 -275 154 -317 26 -8 131 -29 233 -45 102 -17 210 -38 240 -47 141
-42 227 -110 283 -224 29 -58 32 -75 35 -170 2 -59 -1 -132 -7 -162 -45 -217
-254 -414 -511 -483 -97 -26 -339 -32 -458 -11 -159 28 -147 16 -219 217 -35
96 -63 179 -63 185 0 25 42 64 69 64 33 0 44 -12 99 -107 81 -138 173 -191
347 -200 161 -9 275 26 358 109 110 111 139 304 62 420 -50 75 -140 109 -393
148 -129 19 -232 49 -311 90 -91 46 -175 159 -200 271 -16 66 -12 196 7 270
54 204 254 367 492 399 30 4 58 8 62 9 4 0 33 -32 64 -71z m1917 46 c127 -18
227 -48 325 -98 109 -56 102 -39 83 -202 -9 -81 -22 -148 -30 -158 -7 -9 -28
-16 -47 -16 -36 0 -53 18 -94 99 -29 57 -104 138 -152 162 -61 31 -166 51
-278 52 -130 1 -202 -14 -305 -62 -261 -123 -378 -329 -379 -666 -1 -71 3
-152 7 -180 8 -49 8 -50 -10 -29 -10 12 -84 98 -165 192 -85 97 -148 178 -148
190 0 38 42 158 82 232 132 248 392 429 695 484 106 19 281 19 416 0z m-1663
-15 c93 -25 260 -103 260 -121 0 -7 -7 -69 -15 -138 -8 -69 -15 -131 -15 -137
0 -7 -4 -13 -9 -13 -7 0 -208 250 -315 393 l-28 37 24 0 c13 0 57 -9 98 -21z
m591 -1034 c166 -187 345 -380 567 -613 102 -106 183 -194 181 -197 -8 -7
-174 26 -246 50 -140 47 -269 125 -377 226 -120 112 -197 241 -237 398 -22 84
-38 303 -22 286 6 -5 66 -73 134 -150z m1453 -341 c25 -24 19 -62 -28 -196
-74 -209 -60 -190 -162 -221 -110 -34 -168 -44 -281 -53 l-88 -6 -75 84 c-41
46 -83 93 -92 104 l-18 20 78 -14 c96 -17 225 -10 315 18 84 26 160 93 207
182 18 35 40 71 48 81 19 21 75 22 96 1z"/>
</g>
</svg>
